# xmcd
#
# Track frame offsets:
#	150
#	11842
#	25492
#	42005
#	60280
#	70270
#	88345
#	105070
#	123892
#	141832
#
# Disc length: 2119 seconds
#
# Revision: 6
# Processed by: cddbd v1.5.2PL0 Copyright (c) Steve Scherf et al.
# Submitted via: EasyCDDAExtractor 10.0.5.1
#
DISCID=7b08450a
DTITLE=王菲 - 浮躁
DYEAR=1996
DGENRE=Alternative
TTITLE0=無常
TTITLE1=浮躁
TTITLE2=想像
TTITLE3=分裂
TTITLE4=不安
TTITLE5=哪兒
TTITLE6=墮落
TTITLE7=掃興
TTITLE8=末日
TTITLE9=野三坡
EXTD=YEAR: 1996
EXTT0=
EXTT1=
EXTT2=
EXTT3=
EXTT4=
EXTT5=
EXTT6=
EXTT7=
EXTT8=
EXTT9=
PLAYORDER=
